<?xml version="1.0" encoding="UTF-8"?>
<svg version="1.1" xmlns="http://www.w3.org/2000/svg" width="260" height="260">
<path d="M0 0 C7.722436 4.627677 12.30283268 10.41196973 14.61320496 19.27201843 C16.14641914 26.26564052 16.39677111 33.01758143 16.4296875 40.16015625 C16.4443103 41.36764023 16.45893311 42.57512421 16.47399902 43.81919861 C16.53578996 48.94422257 16.57577411 54.06936118 16.61767578 59.19458008 C16.65156004 62.95406235 16.69662506 66.71330024 16.7421875 70.47265625 C16.7474646 71.61976578 16.7527417 72.76687531 16.75817871 73.94874573 C16.89043908 84.67807046 18.01978695 94.3073963 26.00390625 102.12890625 C26.97263672 103.02416016 26.97263672 103.02416016 27.9609375 103.9375 C31.05423793 106.90922968 31.05423793 106.90922968 31.3359375 109.9375 C29.74056847 112.88893271 27.73847727 114.20031018 25.0859375 116.25 C17.07824553 124.74939235 16.64566153 136.1282274 16.64453125 147.22265625 C16.63132339 148.42635361 16.61811554 149.63005096 16.60450745 150.870224 C16.56392566 154.68434002 16.54203197 158.49821824 16.5234375 162.3125 C16.49954168 166.13027905 16.47126458 169.94783788 16.43165588 173.76548767 C16.40756469 176.13061351 16.39249101 178.49585489 16.38804626 180.86109924 C16.27639859 192.75188051 14.71600706 205.14535704 6.23046875 214.23828125 C-2.02518079 220.87905323 -11.00194218 221.71950733 -21.2890625 221.5625 C-22.36800781 221.56572266 -23.44695312 221.56894531 -24.55859375 221.57226562 C-32.51258722 221.51765019 -32.51258722 221.51765019 -35.9140625 219.25 C-35.8515625 216.9375 -35.8515625 216.9375 -34.9140625 214.25 C-31.91941397 212.66100282 -29.05604405 211.62130591 -25.84765625 210.578125 C-20.29931182 208.6830548 -16.68458557 206.48598979 -13.7578125 201.13671875 C-9.93335537 193.00974736 -9.76259406 185.38548516 -9.703125 176.52734375 C-9.67504219 174.19074837 -9.64637764 171.85415993 -9.6171875 169.51757812 C-9.57608961 165.8601105 -9.53917304 162.20277029 -9.51269531 158.54516602 C-9.48482928 154.99729127 -9.43894841 151.44999143 -9.390625 147.90234375 C-9.38737213 146.82895248 -9.38411926 145.75556122 -9.38076782 144.64964294 C-9.19966372 133.27217703 -7.69523339 122.03948888 0.0859375 113.25 C1.39055578 112.21281684 2.7176417 111.20160096 4.0859375 110.25 C2.69438667 107.11381827 1.03449366 105.0101318 -1.3515625 102.5625 C-7.57468864 95.6148519 -9.00801422 86.82926587 -9.07177734 77.69458008 C-9.08203949 76.62939651 -9.09230164 75.56421295 -9.10287476 74.4667511 C-9.11017609 73.32916855 -9.11747742 72.191586 -9.125 71.01953125 C-9.15307464 68.58267564 -9.18173914 66.14582678 -9.2109375 63.70898438 C-9.2521057 59.8889184 -9.28901772 56.06897739 -9.31542969 52.2487793 C-9.34320603 48.5471029 -9.38908058 44.84598781 -9.4375 41.14453125 C-9.44075287 40.01706985 -9.44400574 38.88960846 -9.44735718 37.72798157 C-9.5753413 29.37715363 -10.05764402 18.9621245 -16.12890625 12.51953125 C-19.4367952 10.16709381 -23.19093975 8.83090398 -26.9765625 7.42578125 C-29.87547028 6.26544715 -32.36232583 5.04988569 -34.9140625 3.25 C-35.2440625 2.26 -35.5740625 1.27 -35.9140625 0.25 C-32.04047313 -7.49717875 -6.42643605 -2.99484399 0 0 Z " fill="#6000FF" transform="translate(228.9140625,20.75)"/>
<path d="M0 0 C1.78083984 0.00773437 1.78083984 0.00773437 3.59765625 0.015625 C12.31529472 0.09514736 12.31529472 0.09514736 14.625 1.25 C14.625 2.9 14.625 4.55 14.625 6.25 C14.068125 6.49234375 13.51125 6.7346875 12.9375 6.984375 C10.49304575 8.05795288 8.057961 9.15063408 5.625 10.25 C4.89796875 10.57355469 4.1709375 10.89710937 3.421875 11.23046875 C-1.6799702 13.61587347 -6.12192082 15.9439064 -8.23059082 21.50737 C-10.26741294 28.65372541 -10.80196301 35.23690119 -10.78125 42.64453125 C-10.79208618 43.79434982 -10.80292236 44.9441684 -10.81408691 46.12882996 C-10.84807524 49.77344447 -10.86387837 53.41774857 -10.875 57.0625 C-10.99640384 96.67446153 -10.99640384 96.67446153 -21.5625 108.75 C-23.375 110.25 -23.375 110.25 -25.375 110.25 C-24.30528458 112.97291197 -23.49226931 114.16759454 -21.0625 115.875 C-13.59785471 122.47166328 -11.8037693 132.66237145 -11.18235779 142.20976257 C-11.10049497 145.32975155 -11.07264167 148.44536348 -11.06640625 151.56640625 C-11.04126005 153.90039327 -11.01586184 156.23437759 -10.99023438 158.56835938 C-10.96148819 162.1975034 -10.93742724 165.82660081 -10.91870117 169.45581055 C-10.8969484 172.99290643 -10.85752316 176.52948998 -10.81640625 180.06640625 C-10.81629044 181.1395961 -10.81617462 182.21278595 -10.8160553 183.3184967 C-10.69368786 192.72018708 -8.94374516 201.51563172 -3.375 209.25 C1.31114612 212.62402521 6.03689353 214.1362975 11.5859375 215.63671875 C13.625 216.25 13.625 216.25 14.625 217.25 C14.66580783 219.24958364 14.66754356 221.25045254 14.625 223.25 C10.41014393 224.65495202 6.41494761 224.43429612 2 224.4375 C1.13503906 224.44974609 0.27007812 224.46199219 -0.62109375 224.47460938 C-10.92575987 224.49778329 -19.28426048 222.76401822 -27.06640625 215.71875 C-34.07743026 208.26843877 -36.46387047 198.63759043 -36.53271484 188.61865234 C-36.54297699 187.53667572 -36.55323914 186.4546991 -36.56381226 185.3399353 C-36.57111359 184.18361603 -36.57841492 183.02729675 -36.5859375 181.8359375 C-36.61401542 179.35806642 -36.64267994 176.88020192 -36.671875 174.40234375 C-36.7130182 170.51872001 -36.74993045 166.63521808 -36.77636719 162.75146484 C-36.80417235 158.98770097 -36.85005014 155.22448588 -36.8984375 151.4609375 C-36.90169037 150.31676361 -36.90494324 149.17258972 -36.90829468 147.9937439 C-37.08764618 136.07531882 -38.75974528 125.97641929 -47.375 117.25 C-48.68561049 116.22039914 -50.01313809 115.21078609 -51.375 114.25 C-51.29028403 111.45437284 -50.79944484 109.71018756 -48.890625 107.640625 C-48.28734375 107.07859375 -47.6840625 106.5165625 -47.0625 105.9375 C-40.33651613 99.55608497 -37.7883772 91.50233849 -37.18460083 82.37020874 C-37.09892993 79.09333727 -37.07255527 75.82094598 -37.06640625 72.54296875 C-37.04124613 70.07486743 -37.01584811 67.60676853 -36.99023438 65.13867188 C-36.9615475 61.28801097 -36.93749947 57.43739193 -36.91870117 53.58666992 C-36.8968992 49.84272059 -36.85745315 46.09924962 -36.81640625 42.35546875 C-36.81629044 41.22070602 -36.81617462 40.0859433 -36.8160553 38.91679382 C-36.67425237 27.31630822 -34.90729334 16.26143466 -26.77734375 7.53515625 C-18.7665829 0.07182781 -10.49595585 -0.18597485 0 0 Z " fill="#6000FF" transform="translate(51.375,17.75)"/>
<path d="M0 0 C1.0725 0.598125 2.145 1.19625 3.25 1.8125 C8.29590499 5.82628806 11.54874162 10.66723615 13 17 C13.07522969 19.33212027 13.09325876 21.6685311 13 24 C9.37 24 5.74 24 2 24 C1.443125 22.618125 0.88625 21.23625 0.3125 19.8125 C-1.93108873 14.78812523 -4.47623863 11.39471023 -9.375 8.6875 C-15.61771388 7.05250351 -20.38904128 7.88280071 -26 11 C-30.18077801 15.08787183 -31.77809799 18.44589996 -33 24 C-36.96 24 -40.92 24 -45 24 C-44.43087823 14.8940516 -42.50035405 9.08356286 -35.8125 2.6875 C-25.46599963 -5.87570112 -11.612695 -6.80744189 0 0 Z " fill="#4500FF" transform="translate(99,109)"/>
<path d="M0 0 C6.09669354 3.92898028 10.37738845 9.91951322 12 17 C12.07522969 19.33212027 12.09325876 21.6685311 12 24 C8.37 24 4.74 24 1 24 C0.443125 22.4325 -0.11375 20.865 -0.6875 19.25 C-2.86622245 13.818537 -5.20750085 11.46973639 -10.375 8.75 C-15.15513713 7.38424653 -18.89495994 7.65705653 -23.625 9.125 C-28.68371977 11.93539987 -31.69239229 15.31713051 -33.3125 20.875 C-33.539375 21.90625 -33.76625 22.9375 -34 24 C-37.96 24 -41.92 24 -46 24 C-45.46155497 15.38487956 -43.7590857 9.31165712 -37.375 3.25 C-26.26775652 -5.68897863 -12.55108868 -6.80537454 0 0 Z " fill="#5200FF" transform="translate(191,109)"/>
<path d="M0 0 C3.3 0 6.6 0 10 0 C10.12117188 0.89203125 10.24234375 1.7840625 10.3671875 2.703125 C10.53476563 3.87359375 10.70234375 5.0440625 10.875 6.25 C11.11863281 7.99023438 11.11863281 7.99023438 11.3671875 9.765625 C12.21035561 14.07515087 12.87892975 16.21525083 16.5 18.75 C21.71762489 20.61343746 26.74526137 21.02014196 32.09375 19.34375 C35.42610345 17.70581356 37.00388754 15.99339119 38.875 12.8125 C40.15888825 8.46154539 40.65244214 4.51825213 41 0 C44.63 0 48.26 0 52 0 C52.38428764 9.09480742 51.68048289 16.06460333 45.8125 23.3125 C40.43674065 29.02993896 33.7123551 32.03775877 25.875 32.3125 C18.99908286 32.22187836 13.39247687 29.53479649 7.6875 25.875 C2.01245166 19.80401806 -0.30340926 14.22030045 -0.3125 5.875 C-0.23330534 3.91549793 -0.13797943 1.95624176 0 0 Z " fill="#6400FF" transform="translate(105,155)"/>
<path d="M0 0 C1.92578125 1.16796875 1.92578125 1.16796875 3.92578125 4.16796875 C2.92578125 5.16796875 2.92578125 5.16796875 -0.67602539 5.28149414 C-2.27881731 5.281335 -3.88161435 5.27563938 -5.484375 5.265625 C-6.32640976 5.26421005 -7.16844452 5.2627951 -8.03599548 5.26133728 C-10.7362721 5.25572138 -13.43646703 5.24316623 -16.13671875 5.23046875 C-17.96288943 5.2254558 -19.78906141 5.22089254 -21.61523438 5.21679688 C-26.10159417 5.20574679 -30.58789259 5.18847154 -35.07421875 5.16796875 C-25.54841246 -4.63057274 -12.21286267 -5.21695116 0 0 Z " fill="#3500FF" transform="translate(189.07421875,107.83203125)"/>
<path d="M0 0 C0.59167969 0.0721875 1.18335938 0.144375 1.79296875 0.21875 C5.88261722 0.69910023 9.8738531 1.13310151 14 1 C12.82860087 3.34279827 11.64757435 5.67665724 10.4375 8 C8.83752449 11.08183108 8.83752449 11.08183108 8 15 C4.04 15 0.08 15 -4 15 C-3.56214095 9.22026059 -2.99862039 5.08461719 0 0 Z " fill="#8F00FF" transform="translate(58,118)"/>
<path d="M0 0 C0.928125 0.165 1.85625 0.33 2.8125 0.5 C5.84209675 1.19437998 5.84209675 1.19437998 8.125 0.4375 C10 0 10 0 12.125 0.5625 C14.88784863 2.68068395 15.23918989 4.63975536 16 8 C16.07522969 10.33212027 16.09325876 12.6685311 16 15 C12.37 15 8.74 15 5 15 C0.71428571 5.42857143 0.71428571 5.42857143 -1 1 C-0.67 0.67 -0.34 0.34 0 0 Z " fill="#9000FF" transform="translate(96,118)"/>
<path d="M0 0 C4.29 0 8.58 0 13 0 C12.34 2.64 11.68 5.28 11 8 C7.04 8 3.08 8 -1 8 C-0.67 5.36 -0.34 2.72 0 0 Z " fill="#8F00FF" transform="translate(146,125)"/>
<path d="M0 0 C1.97909398 -0.02686553 3.95828971 -0.04633375 5.9375 -0.0625 C7.03964844 -0.07410156 8.14179688 -0.08570312 9.27734375 -0.09765625 C12 0 12 0 13 1 C13.04092937 3.33297433 13.04241723 5.66705225 13 8 C9.37 8 5.74 8 2 8 C0 2.25 0 2.25 0 0 Z " fill="#8F00FF" transform="translate(190,125)"/>
<path d="M0 0 C0.9075 0.185625 1.815 0.37125 2.75 0.5625 C5.83473449 1.18873617 5.83473449 1.18873617 8.125 0.4375 C10 0 10 0 12.1875 0.625 C14 2 14 2 14.75 4.625 C14.87375 5.800625 14.87375 5.800625 15 7 C5.78465804 8.40573013 5.78465804 8.40573013 2 7 C0.125 5.125 0.125 5.125 -1 3 C-0.67 2.01 -0.34 1.02 0 0 Z " fill="#7000FF" transform="translate(96,118)"/>
<path d="M0 0 C4.29 0.33 8.58 0.66 13 1 C13 4 13 4 11.8125 5.63671875 C9.50185084 7.37468547 7.86530917 7.56093268 5 7.8125 C3.700625 7.94591797 3.700625 7.94591797 2.375 8.08203125 C0 8 0 8 -3 6 C-2.01 4.02 -1.02 2.04 0 0 Z " fill="#6F00FF" transform="translate(149,118)"/>
<path d="M0 0 C1.42124078 0.09102988 2.83848308 0.24820717 4.25 0.4375 C7.52972675 0.84550429 10.68871285 1.10681571 14 1 C12.84826645 3.46800047 11.95216435 5.04783565 10 7 C7.6875 7.44921875 7.6875 7.44921875 5 7.6875 C4.113125 7.77386719 3.22625 7.86023438 2.3125 7.94921875 C0 8 0 8 -2 7 C-1.125 1.125 -1.125 1.125 0 0 Z " fill="#6F00FF" transform="translate(58,118)"/>
<path d="M0 0 C0.80824219 0.10183594 1.61648437 0.20367187 2.44921875 0.30859375 C3.06410156 0.39238281 3.67898437 0.47617188 4.3125 0.5625 C4.9725 2.5425 5.6325 4.5225 6.3125 6.5625 C-3.41754484 8.28357623 -3.41754484 8.28357623 -6.53125 6.515625 C-7.875 5.125 -7.875 5.125 -9.6875 2.5625 C-6.54519271 -0.57980729 -4.18151679 -0.54541523 0 0 Z " fill="#6F00FF" transform="translate(195.6875,118.4375)"/>
</svg>
